<?xml version="1.0" encoding="UTF-8"?>
<!--Generator: Apple Native CoreSVG 175.5-->
<!DOCTYPE svg
PUBLIC "-//W3C//DTD SVG 1.1//EN"
       "http://www.w3.org/Graphics/SVG/1.1/DTD/svg11.dtd">
<svg version="1.1" xmlns="http://www.w3.org/2000/svg" xmlns:xlink="http://www.w3.org/1999/xlink" width="59.7656" height="59.7949">
 <g>
  <rect height="59.7949" opacity="0" width="59.7656" x="0" y="0"/>
  <path d="M29.8828 59.7656C46.2305 59.7656 59.7656 46.2012 59.7656 29.8828C59.7656 13.5352 46.2012 0 29.8535 0C13.5352 0 0 13.5352 0 29.8828C0 46.2012 13.5645 59.7656 29.8828 59.7656ZM29.8828 54.7852C16.0547 54.7852 5.00977 43.7109 5.00977 29.8828C5.00977 16.0547 16.0254 4.98047 29.8535 4.98047C43.6816 4.98047 54.7852 16.0547 54.7852 29.8828C54.7852 43.7109 43.7109 54.7852 29.8828 54.7852ZM11.4551 29.0039C11.4551 33.457 13.0371 37.6172 15.9961 40.8105C16.7285 41.6309 17.9004 41.6895 18.5742 40.8984C19.2188 40.1953 19.1309 39.2285 18.3984 38.3203C16.1133 35.8594 14.8828 32.5781 14.8828 29.0039C14.8828 25.4297 16.1133 22.1777 18.3984 19.6875C19.1309 18.8086 19.2188 17.8125 18.6035 17.1094C17.9004 16.3184 16.7285 16.3477 15.9961 17.1973C13.0664 20.3906 11.4551 24.5508 11.4551 29.0039ZM18.6035 29.0039C18.6035 31.5234 19.4824 33.9551 21.0352 35.8887C21.709 36.7969 22.998 36.8555 23.7012 36.0352C24.3164 35.3613 24.2285 34.4824 23.4961 33.4863C22.5293 32.2852 22.0312 30.7617 22.0312 29.0039C22.0312 27.334 22.5586 25.7812 23.5254 24.4922C24.2285 23.5254 24.2871 22.6465 23.7012 21.9727C22.9688 21.1523 21.709 21.2109 21.0352 22.1191C19.4824 24.0527 18.6035 26.4844 18.6035 29.0039ZM26.4551 29.0039C26.4551 30.293 27.1875 31.377 28.2422 31.9336L28.2422 47.168C28.2422 48.1934 28.916 48.9258 29.8535 48.9258C30.8203 48.9258 31.4941 48.2227 31.4941 47.168L31.4941 31.9336C32.5195 31.377 33.252 30.2637 33.252 29.0039C33.252 27.0996 31.7578 25.6055 29.8535 25.6055C27.9785 25.6055 26.4551 27.0996 26.4551 29.0039ZM37.6758 29.0039C37.6758 30.7617 37.1777 32.2852 36.2109 33.4863C35.4785 34.4824 35.3906 35.3613 36.0059 36.0352C36.709 36.8555 37.998 36.7969 38.6719 35.8887C40.2246 33.9551 41.1035 31.5234 41.1035 29.0039C41.1035 26.4844 40.2246 24.0527 38.6719 22.1191C37.998 21.2109 36.7383 21.1523 36.0059 21.9727C35.4199 22.6465 35.5078 23.5254 36.2109 24.4922C37.1484 25.7812 37.6758 27.334 37.6758 29.0039ZM44.8535 29.0039C44.8535 32.5781 43.623 35.8594 41.3379 38.3203C40.5762 39.2285 40.4883 40.1953 41.1328 40.8984C41.8066 41.6895 42.9785 41.6309 43.7109 40.8105C46.6699 37.6172 48.2812 33.457 48.2812 29.0039C48.2812 24.5508 46.6406 20.3906 43.7109 17.1973C42.9785 16.3477 41.8066 16.3184 41.1035 17.1094C40.4883 17.8125 40.5762 18.8086 41.3379 19.6875C43.623 22.1777 44.8535 25.4297 44.8535 29.0039Z" fill="#000000" fill-opacity="0.85"/>
 </g>
</svg>
